<?xml version="1.0" encoding="UTF-8"?>
<svg version="1.1" xmlns="http://www.w3.org/2000/svg" width="512" height="512">
<path d="M0 0 C0.86133545 0.30623291 1.7226709 0.61246582 2.61010742 0.92797852 C4.99229644 1.779293 7.37145517 2.63856935 9.75 3.5 C10.73097656 3.84933594 11.71195312 4.19867187 12.72265625 4.55859375 C19.09800984 6.95334259 25.00719925 10.22025638 30.9765625 13.46875 C35.37811973 15.85771604 39.86087693 18.07335238 44.359375 20.2734375 C46.75 21.5 46.75 21.5 49.75 23.5 C49.75 24.16 49.75 24.82 49.75 25.5 C50.554375 25.70625 51.35875 25.9125 52.1875 26.125 C56.91531099 27.94976915 63.38878376 30.77756752 65.75 35.5 C67.41224525 36.50733237 69.07983484 37.50585407 70.75 38.5 C72.64836188 39.99157005 74.52284059 41.51393146 76.375 43.0625 C79.12117213 45.3534847 81.77318432 47.51545621 84.75 49.5 C84.75 50.16 84.75 50.82 84.75 51.5 C85.389375 51.768125 86.02875 52.03625 86.6875 52.3125 C88.75 53.5 88.75 53.5 89.75 56.5 C90.41 56.83 91.07 57.16 91.75 57.5 C92.41 57.83 93.07 58.16 93.75 58.5 C94.08 59.49 94.41 60.48 94.75 61.5 C95.41 61.83 96.07 62.16 96.75 62.5 C97.41 62.83 98.07 63.16 98.75 63.5 C99.08 64.49 99.41 65.48 99.75 66.5 C100.60271484 66.89445312 100.60271484 66.89445312 101.47265625 67.296875 C104.81018363 69.06009701 106.8446366 71.86895477 109.1875 74.75 C109.88456055 75.59111328 109.88456055 75.59111328 110.59570312 76.44921875 C111.52600427 77.57284608 112.45231441 78.69979024 113.37451172 79.83007812 C114.29584898 80.94863454 115.23000551 82.05674724 116.17626953 83.15429688 C118.28516711 85.60646812 119.71566587 87.3969976 120.75 90.5 C121.61625 91.36625 121.61625 91.36625 122.5 92.25 C126.60609862 96.35609862 130.20718869 100.5290756 130.75 106.5 C131.41 106.5 132.07 106.5 132.75 106.5 C136.68982308 113.54392612 140.38913905 120.6844431 143.9453125 127.92773438 C145.30913646 130.69098413 146.66086237 133.35845481 148.3046875 135.96875 C150.24954364 139.37487644 151.43491885 142.91823129 152.6875 146.625 C153.21554982 148.16036136 153.74419475 149.69551818 154.2734375 151.23046875 C154.52706055 151.96958496 154.78068359 152.70870117 155.04199219 153.47021484 C155.91686248 155.97837746 156.86336037 158.45661876 157.8125 160.9375 C160.59877949 168.68612025 162.79340754 176.50938012 164.75 184.5 C164.98428711 185.3962207 165.21857422 186.29244141 165.45996094 187.21582031 C174.71705357 223.93017821 173.55734571 267.99696286 163.75 304.5 C163.3171167 306.14524658 163.3171167 306.14524658 162.87548828 307.82373047 C159.67421708 319.7051992 155.61609163 331.20171829 150.75 342.5 C150.04423828 344.16869141 150.04423828 344.16869141 149.32421875 345.87109375 C147.54819549 349.96520196 145.69961615 354.01867969 143.8125 358.0625 C143.47798828 358.79146484 143.14347656 359.52042969 142.79882812 360.27148438 C140.76632373 364.62237528 138.48926899 368.53815201 135.75 372.5 C134.72069953 374.48507948 133.71136071 376.48114251 132.75 378.5 C132.09 378.5 131.43 378.5 130.75 378.5 C130.440625 379.7065625 130.440625 379.7065625 130.125 380.9375 C128.30023085 385.66531099 125.47243248 392.13878376 120.75 394.5 C119.74266763 396.16224525 118.74414593 397.82983484 117.75 399.5 C116.25842995 401.39836188 114.73606854 403.27284059 113.1875 405.125 C110.8965153 407.87117213 108.73454379 410.52318432 106.75 413.5 C106.09 413.5 105.43 413.5 104.75 413.5 C104.481875 414.139375 104.21375 414.77875 103.9375 415.4375 C102.75 417.5 102.75 417.5 99.75 418.5 C99.42 419.16 99.09 419.82 98.75 420.5 C98.42 421.16 98.09 421.82 97.75 422.5 C96.76 422.83 95.77 423.16 94.75 423.5 C94.42 424.16 94.09 424.82 93.75 425.5 C93.42 426.16 93.09 426.82 92.75 427.5 C91.76 427.83 90.77 428.16 89.75 428.5 C89.42 429.16 89.09 429.82 88.75 430.5 C88.42 431.16 88.09 431.82 87.75 432.5 C86.76 432.83 85.77 433.16 84.75 433.5 C84.75 434.16 84.75 434.82 84.75 435.5 C82.55790789 437.39546259 80.35936994 439.17756069 78.0625 440.9375 C77.43666016 441.42798828 76.81082031 441.91847656 76.16601562 442.42382812 C72.80473968 445.03189669 69.42262106 447.34158799 65.75 449.5 C65.13125 450.11875 64.5125 450.7375 63.875 451.375 C59.81140212 455.43859788 55.65172834 458.96347924 49.75 459.5 C49.75 460.16 49.75 460.82 49.75 461.5 C42.70607388 465.43982308 35.5655569 469.13913905 28.32226562 472.6953125 C25.55901587 474.05913646 22.89154519 475.41086237 20.28125 477.0546875 C16.87512356 478.99954364 13.33176871 480.18491885 9.625 481.4375 C8.08963864 481.96554982 6.55448182 482.49419475 5.01953125 483.0234375 C4.28041504 483.27706055 3.54129883 483.53068359 2.77978516 483.79199219 C0.27162254 484.66686248 -2.20661876 485.61336037 -4.6875 486.5625 C-12.43612025 489.34877949 -20.25938012 491.54340754 -28.25 493.5 C-29.1462207 493.73428711 -30.04244141 493.96857422 -30.96582031 494.20996094 C-76.50675704 505.69257139 -128.63543558 500.67319571 -172.5 485 C-173.36133545 484.69376709 -174.2226709 484.38753418 -175.11010742 484.07202148 C-177.49229644 483.220707 -179.87145517 482.36143065 -182.25 481.5 C-183.23097656 481.15066406 -184.21195313 480.80132812 -185.22265625 480.44140625 C-191.59800984 478.04665741 -197.50719925 474.77974362 -203.4765625 471.53125 C-207.87811973 469.14228396 -212.36087693 466.92664762 -216.859375 464.7265625 C-219.25 463.5 -219.25 463.5 -222.25 461.5 C-222.25 460.84 -222.25 460.18 -222.25 459.5 C-223.054375 459.29375 -223.85875 459.0875 -224.6875 458.875 C-229.41531099 457.05023085 -235.88878376 454.22243248 -238.25 449.5 C-239.90970202 448.48848283 -241.57774059 447.49061912 -243.25 446.5 C-247.00338929 443.60500915 -250.62042715 440.54823458 -254.25 437.5 C-255.07242188 436.81550781 -255.89484375 436.13101562 -256.7421875 435.42578125 C-257.82886719 434.50345703 -257.82886719 434.50345703 -258.9375 433.5625 C-259.90236328 432.74458984 -259.90236328 432.74458984 -260.88671875 431.91015625 C-262.25 430.5 -262.25 430.5 -262.25 428.5 C-262.889375 428.231875 -263.52875 427.96375 -264.1875 427.6875 C-266.25 426.5 -266.25 426.5 -267.25 423.5 C-267.91 423.17 -268.57 422.84 -269.25 422.5 C-271.25 421.5 -271.25 421.5 -272.25 418.5 C-272.91 418.17 -273.57 417.84 -274.25 417.5 C-276.25 416.5 -276.25 416.5 -277.25 413.5 C-277.91 413.5 -278.57 413.5 -279.25 413.5 C-281.14546259 411.30790789 -282.92756069 409.10936994 -284.6875 406.8125 C-285.17798828 406.18666016 -285.66847656 405.56082031 -286.17382812 404.91601562 C-288.78189669 401.55473968 -291.09158799 398.17262106 -293.25 394.5 C-293.86875 393.88125 -294.4875 393.2625 -295.125 392.625 C-299.18859788 388.56140212 -302.71347924 384.40172834 -303.25 378.5 C-303.91 378.5 -304.57 378.5 -305.25 378.5 C-309.18982308 371.45607388 -312.88913905 364.3155569 -316.4453125 357.07226562 C-317.80913646 354.30901587 -319.16086237 351.64154519 -320.8046875 349.03125 C-322.74954364 345.62512356 -323.93491885 342.08176871 -325.1875 338.375 C-325.71554982 336.83963864 -326.24419475 335.30448182 -326.7734375 333.76953125 C-327.02706055 333.03041504 -327.28068359 332.29129883 -327.54199219 331.52978516 C-328.41686248 329.02162254 -329.36336037 326.54338124 -330.3125 324.0625 C-333.09877949 316.31387975 -335.29340754 308.49061988 -337.25 300.5 C-337.48428711 299.6037793 -337.71857422 298.70755859 -337.95996094 297.78417969 C-349.44257139 252.24324296 -344.42319571 200.11456442 -328.75 156.25 C-328.44376709 155.38866455 -328.13753418 154.5273291 -327.82202148 153.63989258 C-326.970707 151.25770356 -326.11143065 148.87854483 -325.25 146.5 C-324.90066406 145.51902344 -324.55132812 144.53804687 -324.19140625 143.52734375 C-321.79665741 137.15199016 -318.52974362 131.24280075 -315.28125 125.2734375 C-312.89228396 120.87188027 -310.67664762 116.38912307 -308.4765625 111.890625 C-307.25 109.5 -307.25 109.5 -305.25 106.5 C-304.59 106.5 -303.93 106.5 -303.25 106.5 C-303.04375 105.695625 -302.8375 104.89125 -302.625 104.0625 C-300.80023085 99.33468901 -297.97243248 92.86121624 -293.25 90.5 C-292.23848283 88.84029798 -291.24061912 87.17225941 -290.25 85.5 C-287.35500915 81.74661071 -284.29823458 78.12957285 -281.25 74.5 C-280.56550781 73.67757812 -279.88101563 72.85515625 -279.17578125 72.0078125 C-278.25345703 70.92113281 -278.25345703 70.92113281 -277.3125 69.8125 C-276.76722656 69.16925781 -276.22195313 68.52601562 -275.66015625 67.86328125 C-274.25 66.5 -274.25 66.5 -272.25 66.5 C-271.981875 65.860625 -271.71375 65.22125 -271.4375 64.5625 C-270.25 62.5 -270.25 62.5 -267.25 61.5 C-266.92 60.84 -266.59 60.18 -266.25 59.5 C-265.25 57.5 -265.25 57.5 -262.25 56.5 C-261.98703125 55.93152344 -261.7240625 55.36304687 -261.453125 54.77734375 C-259.68990299 51.43981637 -256.88104523 49.4053634 -254 47.0625 C-253.43925781 46.59779297 -252.87851563 46.13308594 -252.30078125 45.65429688 C-251.17715392 44.72399573 -250.05020976 43.79768559 -248.91992188 42.87548828 C-247.80136546 41.95415102 -246.69325276 41.01999449 -245.59570312 40.07373047 C-243.14353188 37.96483289 -241.3530024 36.53433413 -238.25 35.5 C-237.6725 34.9225 -237.095 34.345 -236.5 33.75 C-232.39390138 29.64390138 -228.2209244 26.04281131 -222.25 25.5 C-222.25 24.84 -222.25 24.18 -222.25 23.5 C-215.20607388 19.56017692 -208.0655569 15.86086095 -200.82226562 12.3046875 C-198.05901587 10.94086354 -195.39154519 9.58913763 -192.78125 7.9453125 C-189.37512356 6.00045636 -185.83176871 4.81508115 -182.125 3.5625 C-180.58963864 3.03445018 -179.05448182 2.50580525 -177.51953125 1.9765625 C-176.78041504 1.72293945 -176.04129883 1.46931641 -175.27978516 1.20800781 C-172.77162254 0.33313752 -170.29338124 -0.61336037 -167.8125 -1.5625 C-160.06387975 -4.34877949 -152.24061988 -6.54340754 -144.25 -8.5 C-143.3537793 -8.73428711 -142.45755859 -8.96857422 -141.53417969 -9.20996094 C-95.99324296 -20.69257139 -43.86456442 -15.67319571 0 0 Z " fill="#840010" transform="translate(342.25,13.5)"/>
<path d="M0 0 C0.90053596 -0.0060911 1.80107193 -0.01218221 2.72889686 -0.01845789 C5.74116669 -0.0350834 8.75301359 -0.03031263 11.76531982 -0.0255127 C13.92729633 -0.03285338 16.08926892 -0.04143961 18.25123596 -0.05117798 C24.12123428 -0.07340539 29.99109227 -0.07632394 35.8611269 -0.07443047 C40.76405069 -0.07431079 45.66694471 -0.08287381 50.56986022 -0.09120798 C62.14007917 -0.11044741 73.71022598 -0.11332428 85.28045654 -0.10656738 C97.20815264 -0.09992969 109.13553925 -0.12277904 121.06317258 -0.15988111 C131.30966766 -0.19059494 141.55606329 -0.20193619 151.80260348 -0.1980443 C157.91967763 -0.19597814 164.03651108 -0.20143551 170.15354156 -0.22593689 C175.90909894 -0.24822826 181.66415413 -0.24630577 187.41971397 -0.22600937 C189.52797271 -0.22260333 191.63626539 -0.22767078 193.74447823 -0.24199295 C215.77971116 -0.38131756 215.77971116 -0.38131756 223.5362587 6.87247467 C224.89324951 8.39440918 224.89324951 8.39440918 226.95574951 11.39440918 C227.48584783 12.13655513 228.01594614 12.87870108 228.56210804 13.6433363 C230.31357387 17.10076079 230.32513211 19.54162132 230.31651306 23.41157532 C230.31907634 24.10596779 230.32163961 24.80036026 230.32428056 25.51579493 C230.32921089 27.83600431 230.31273862 30.15555887 230.29632568 32.47570801 C230.29547925 34.14144882 230.29595488 35.80719075 230.2976532 37.47293091 C230.29851393 41.99118392 230.28087559 46.509198 230.25993133 51.02739549 C230.24117749 55.75060709 230.2394151 60.47382417 230.2358551 65.19706726 C230.22653084 74.13948532 230.20191188 83.08179334 230.17180663 92.02416295 C230.13827451 102.20544815 230.1217796 112.38673861 230.10672033 122.56806529 C230.07536268 143.51024133 230.02259474 164.45231832 229.95574951 185.39440918 C227.79380612 183.23246579 227.09005171 181.32577207 226.05389404 178.49450684 C223.06195536 170.32273644 219.23533887 163.36346713 213.95574951 156.39440918 C213.3511792 155.59390137 212.74660889 154.79339355 212.12371826 153.96862793 C201.058128 140.4802558 184.17790547 132.70740506 167.95574951 127.45690918 C166.99029709 127.13966385 166.99029709 127.13966385 166.00534058 126.81600952 C152.48832199 122.37815878 138.79274887 118.6989627 124.95574951 115.39440918 C123.82145508 115.12209473 122.68716064 114.84978027 121.51849365 114.56921387 C116.1862675 113.31047374 110.95846993 112.2036476 105.51824951 111.51940918 C100.57187861 110.78862667 95.93859053 109.65689585 91.20574951 108.08190918 C90.03528076 107.69390137 88.86481201 107.30589355 87.65887451 106.90612793 C84.95574951 105.39440918 84.95574951 105.39440918 84.06512451 102.72644043 C84.02903076 101.95687012 83.99293701 101.1872998 83.95574951 100.39440918 C90.46000836 95.05683353 98.5018011 95.30373705 106.58074951 94.95690918 C118.44346364 94.4255765 131.40939905 93.30132203 141.95574951 87.39440918 C143.31014619 84.68561583 143.02076402 82.3850765 142.95574951 79.39440918 C142.29574951 79.06440918 141.63574951 78.73440918 140.95574951 78.39440918 C141.03824951 79.15753418 141.12074951 79.92065918 141.20574951 80.70690918 C140.95574951 83.39440918 140.95574951 83.39440918 139.21356201 84.96472168 C127.30279952 92.5068308 108.52552456 91.29810796 94.91375732 91.68200684 C75.96855223 92.19064513 75.96855223 92.19064513 59.95574951 101.39440918 C58.9095786 104.56440062 58.9095786 104.56440062 58.95574951 107.39440918 C63.15044573 111.1453551 67.53384696 113.20973198 72.64324951 115.39440918 C73.4505249 115.74688721 74.25780029 116.09936523 75.08953857 116.46252441 C79.10029431 118.2042068 83.12561525 119.88343503 87.20574951 121.45690918 C99.41561061 126.27769917 112.32980241 132.23854769 119.95574951 143.39440918 C121.6985876 149.89374289 121.61277354 156.20333694 118.42840576 162.18347168 C112.29911195 171.38554144 104.2605959 177.6574901 94.95574951 183.39440918 C94.390979 183.74293945 93.8262085 184.09146973 93.24432373 184.45056152 C73.60087654 196.36525755 52.3032745 205.52116971 30.98699951 213.95690918 C26.03408599 215.92515636 21.18880373 218.07333972 16.34979248 220.30505371 C13.52659689 221.58968544 10.67076245 222.73896293 7.76824951 223.83190918 C6.14789795 224.4448584 6.14789795 224.4448584 4.49481201 225.07019043 C3.32692139 225.50718262 2.15903076 225.9441748 0.95574951 226.39440918 C-0.41150891 226.90854354 -1.77869358 227.42287405 -3.14581299 227.93737793 C-6.46383306 229.18473954 -9.78233133 230.43075059 -13.10528564 231.66491699 C-14.47357882 232.17970672 -15.83748328 232.70623545 -17.19805908 233.24108887 C-22.72777555 235.39440918 -22.72777555 235.39440918 -26.04425049 235.39440918 C-26.18444104 206.99586627 -26.29023183 178.59737525 -26.35512352 150.19855595 C-26.38605536 137.01233919 -26.42822356 123.8263375 -26.49688721 110.64025879 C-26.55670915 99.14664533 -26.59540451 87.65318763 -26.60878146 76.15942281 C-26.61660034 70.07404798 -26.63496347 63.98911875 -26.67863083 57.9038868 C-26.71941538 52.17385702 -26.73190739 46.44445557 -26.72289658 40.71429443 C-26.72454457 38.61365276 -26.73644423 36.51298965 -26.75948334 34.41247368 C-26.95963728 15.21947468 -26.95963728 15.21947468 -21.57694435 8.85240841 C-14.80356103 2.40912061 -9.24021542 -0.05891707 0 0 Z " fill="#FEFDFD" transform="translate(154.04425048828125,137.6055908203125)"/>
</svg>
